<?xml version="1.0" encoding="utf-8" ?><svg xmlns="http://www.w3.org/2000/svg" xmlns:xlink="http://www.w3.org/1999/xlink" width="456" height="304" viewBox="0 0 456 304"><path fill="#ED5444" transform="scale(0.365385 0.365385)" d="M346.534 123.407L359.496 123.196C377.963 158.047 392.818 198.745 408.365 235.153C426.476 277.569 444.796 319.81 462.8 362.279L544.318 553.688C564.521 600.507 586.343 648.923 605.071 696.163C592.662 696.047 579.48 696.129 567.14 695.607C561.787 687.577 559.3 679.691 555.536 670.963C550.02 658.107 545.172 644.848 539.394 632.12C500.008 545.355 464.584 456.807 426.04 369.654C420.704 357.589 416.778 344.754 410.193 333.19C402.115 354.188 391.37 376.394 382.534 397.285C357.651 456.133 332.369 514.812 306.692 573.317L271.189 654.759C268.577 660.831 255.948 695.487 251.141 695.776C246.675 696.045 218.469 696.721 215.878 695.013C215.187 689.763 244.372 625.596 248.609 615.948L287.183 527.127C313.253 467.71 337.109 407.126 364.264 348.131C373.722 327.585 383.307 306.763 391.703 285.785C385.642 274.162 380.184 259.421 374.287 246.894C367.666 264.095 358.215 283.155 350.815 300.372L294.775 429.87C283.952 456.233 270.988 484.475 259.323 510.625L222.305 594.564C207.57 627.637 193.479 663.185 177.774 695.495C165.535 695.909 151.351 695.573 138.958 695.586C144.247 680.064 155.076 657.411 161.753 642.04L207.438 538.004L310.458 302.554C324.932 269.565 340.769 236.224 354.802 203.305C350.528 191.742 342.615 173.731 337.274 162.577C300.818 249.224 262.919 335.257 223.593 420.639L168.188 546.065L129.264 633.825C120.544 653.234 109.393 676.48 101.956 696.027C88.8101 695.738 73.3624 696.35 60.8348 695.718C64.9111 689.398 71.8982 673.635 74.9653 666.708L97.2158 615.515L171.922 447.505L259.757 249.364L299.87 160.107C305.386 147.513 310.737 136.596 315.722 123.676C326.049 123.731 336.212 123.855 346.534 123.407Z"/><path fill="#ED5444" transform="scale(0.365385 0.365385)" d="M396.929 123.393C410.212 123.626 422.419 123.236 435.605 123.221C439.427 128.424 448.863 152.489 451.879 159.704C460.14 179.518 468.539 199.274 477.073 218.972L604.304 515.574L641.725 602.281C646.028 612.368 654.977 636.218 659.957 644.444C663.856 642.711 670.816 623.929 673.042 618.995C682.04 599.292 690.69 579.432 698.988 559.423L750.515 439.972C754.755 430.167 763.256 408.437 768.073 400.26C781.324 435.201 798.491 473.059 813.253 507.838L842.987 576.315C852.447 598.184 862.961 623.249 873.433 644.643C880.285 628.943 886.517 611.39 892.961 595.361L925.203 516.572L1042.38 230.885C1057.03 195.966 1071.89 157.147 1087.72 123.176C1100.56 123.547 1112.12 123.728 1125.03 123.726C1124.43 126.195 1123.43 128.817 1122.58 131.232C1069.73 257.275 1017.79 383.703 966.782 510.505L924.308 614.366C914.295 639.14 901.424 672.551 889.91 696.171C878.812 695.954 867.193 696.414 856.187 695.846C854.06 692.478 847.607 676.898 845.444 672.043C836.965 653.289 828.662 634.456 820.536 615.547L787.024 538.574C780.566 523.744 772.827 506.983 767.34 492.038C761.487 504.524 756.235 518.368 750.751 531.137L719.865 601.767L691.838 665.437C687.637 675.145 682.56 686.233 678.916 696.035C666.765 696.274 654.614 696.441 642.462 696.537C633.635 676.866 625.205 655.991 616.537 636.064L504.197 373.571L441.624 226.979C427.177 193.81 409.644 156.732 396.929 123.393Z"/><path fill="#ED5444" transform="scale(0.365385 0.365385)" d="M472.521 123.145C485.619 123.509 498.11 123.842 511.213 123.489C548.068 210.667 585.478 297.608 623.441 384.307L648.934 443.032C652.91 452.118 657.61 463.648 662.169 472.279L735.071 305.118C742.724 287.569 749.43 269.744 757.223 252.262C760.26 245.448 763.203 237.679 766.77 231.227C769.782 236.074 773.196 244.3 775.661 249.794C781.287 262.371 786.803 274.997 792.207 287.672L823.966 358.416C832.716 378.194 841.048 399.852 850.535 419.126C857.713 433.709 865.802 455.383 873.494 468.775C876.102 464.413 882.514 447.513 884.83 441.828L909.02 382.258L976.631 217.513C988.967 187.27 1001.86 153.226 1015.2 123.72L1054.05 123.725L1028.21 187.886C1015.54 217.15 1004.62 248.392 992.466 277.608L874.92 560.327C870.337 553.506 863.967 537.595 860.324 529.266L838.031 478.824L791.622 376.044C783.568 358.111 774.672 338.988 767.351 320.825L689.893 498.329C684.586 510.264 679.425 522.262 674.409 534.323C670.867 542.938 666.367 554.912 662.07 562.824C657.9 555.67 652.419 542.202 648.897 534.161L629.489 490.12L563.22 336.405C539.774 283.621 516.944 230.565 494.737 177.248C488.07 161.14 476.681 138.921 472.521 123.145Z"/><path fill="#ED5444" transform="scale(0.365385 0.365385)" d="M1159.06 123.021C1172.84 124.347 1185.65 122.594 1199.22 123.652C1183.98 153.886 1171.64 188.68 1158.65 220.106L1080.49 409.434L1002.91 598.309L975.879 663.793C971.946 673.561 966.493 686.038 963.492 695.839C951.82 696.57 935.376 696.144 923.364 696.244C928.798 681.504 935.374 666.763 941.308 652.171L986.785 541.355L1159.06 123.021Z"/></svg>